<?xml version="1.0" encoding="UTF-8" standalone="no" ?>
<!DOCTYPE svg PUBLIC "-//W3C//DTD SVG 1.1//EN" "http://www.w3.org/Graphics/SVG/1.1/DTD/svg11.dtd">
<svg xmlns="http://www.w3.org/2000/svg" xmlns:xlink="http://www.w3.org/1999/xlink" version="1.1" width="264.14" height="264.14" viewBox="0 0 264.14 264.14" xml:space="preserve">
<desc>Created with Fabric.js 5.3.0</desc>
<defs>
</defs>
<g transform="matrix(3.535 0 0 3.535 132.2787060227 131.8612939773)" id="q1WNIcPXCSZYgstc3mhnd"  >
<path style="stroke: rgb(0,117,242); stroke-opacity: 0.6; stroke-width: 4; stroke-dasharray: none; stroke-linecap: butt; stroke-dashoffset: 0; stroke-linejoin: miter; stroke-miterlimit: 4; fill: rgb(101,168,119); fill-opacity: 0; fill-rule: nonzero; opacity: 1;"  transform=" translate(0, 0)" d="M 0 -35.36068 C 19.51909 -35.36068 35.36068 -19.5191 35.36068 0 C 35.36068 19.51909 19.5191 35.36068 0 35.36068 C -19.51909 35.36068 -35.36068 19.5191 -35.36068 0 C -35.36068 -19.51909 -19.5191 -35.36068 0 -35.36068 z" stroke-linecap="round" />
</g>
<g transform="matrix(2.4745 0 0 2.4745 132.2787060227 131.8612939773)" id="uhTTCdExd86DsDENHXx2m"  >
<path style="stroke: rgb(0,117,242); stroke-opacity: 0.9; stroke-width: 0; stroke-dasharray: none; stroke-linecap: butt; stroke-dashoffset: 0; stroke-linejoin: miter; stroke-miterlimit: 4; fill: rgb(0,117,242); fill-opacity: 0.6; fill-rule: nonzero; opacity: 1;"  transform=" translate(0, 0)" d="M 0 -35.36068 C 19.51909 -35.36068 35.36068 -19.5191 35.36068 0 C 35.36068 19.51909 19.5191 35.36068 0 35.36068 C -19.51909 35.36068 -35.36068 19.5191 -35.36068 0 C -35.36068 -19.51909 -19.5191 -35.36068 0 -35.36068 z" stroke-linecap="round" />
</g>
</svg>