<svg width="26" height="15" viewBox="0 0 26 15" fill="none" xmlns="http://www.w3.org/2000/svg">
<path d="M1.25698 14.0996C1.6086 14.4511 2.08542 14.6486 2.58261 14.6486C3.07979 14.6486 3.55662 14.4511 3.90823 14.0996L13.1895 4.81833L22.4707 14.0996C22.8244 14.4411 23.298 14.6301 23.7896 14.6258C24.2812 14.6216 24.7515 14.4244 25.0991 14.0767C25.4468 13.7291 25.644 13.2588 25.6482 12.7672C25.6525 12.2756 25.4635 11.802 25.122 11.4483L14.5151 0.841455C14.1635 0.489947 13.6867 0.29248 13.1895 0.29248C12.6923 0.29248 12.2155 0.489947 11.8639 0.841455L1.25698 11.4483C0.905474 11.7999 0.708008 12.2768 0.708008 12.774C0.708008 13.2711 0.905474 13.748 1.25698 14.0996Z" fill="white"/>
</svg>
