<svg width="26" height="15" viewBox="0 0 26 15" fill="none" xmlns="http://www.w3.org/2000/svg">
<path d="M24.743 0.900421C24.3914 0.548913 23.9146 0.351446 23.4174 0.351446C22.9202 0.351446 22.4434 0.548913 22.0918 0.900421L12.8105 10.1817L3.52927 0.900421C3.17564 0.558875 2.70201 0.369885 2.21039 0.374158C1.71877 0.378429 1.2485 0.575621 0.900856 0.923261C0.553215 1.2709 0.356026 1.74118 0.351753 2.23279C0.347483 2.72441 0.536472 3.19804 0.878017 3.55167L11.4849 14.1585C11.8365 14.5101 12.3133 14.7075 12.8105 14.7075C13.3077 14.7075 13.7845 14.5101 14.1361 14.1585L24.743 3.55167C25.0945 3.20006 25.292 2.72323 25.292 2.22605C25.292 1.72886 25.0945 1.25204 24.743 0.900421Z" fill="white"/>
</svg>
