<svg width="25" height="26" viewBox="0 0 25 26" fill="none" xmlns="http://www.w3.org/2000/svg">
<path fill-rule="evenodd" clip-rule="evenodd" d="M15.1277 1.51761C13.96 -0.50587 11.0395 -0.50587 9.87177 1.51761L8.17603 4.45512C7.93839 4.87309 7.87572 5.36809 8.00169 5.8321C8.12767 6.29611 8.43206 6.69146 8.84845 6.93186C9.26483 7.17227 9.75941 7.23823 10.2242 7.11533C10.6891 6.99244 11.0864 6.69067 11.3296 6.27589L12.4997 4.24876L15.1945 8.91722C14.7692 8.95767 14.3716 9.1464 14.0714 9.45037C13.7712 9.75434 13.5875 10.1542 13.5523 10.58C13.5171 11.0058 13.6328 11.4303 13.8791 11.7794C14.1254 12.1285 14.4866 12.3799 14.8995 12.4896L18.4172 13.4315C18.681 13.5041 18.9579 13.5155 19.2267 13.4648C19.4956 13.4141 19.7493 13.3026 19.9685 13.139C20.3011 12.8938 20.5366 12.5563 20.6483 12.1436L21.5902 8.62711C21.701 8.21488 21.6634 7.77684 21.484 7.38951C21.3047 7.00217 20.9949 6.69017 20.6089 6.50801C20.2229 6.32584 19.7851 6.28508 19.3721 6.39286C18.9591 6.50064 18.5971 6.7501 18.3493 7.09766L15.1277 1.51761ZM0.411054 17.9045L3.63139 12.3257C3.20608 12.2852 2.80854 12.0965 2.50833 11.7925C2.20812 11.4886 2.02436 11.0887 1.98921 10.6629C1.95405 10.2372 2.06974 9.81257 2.31602 9.46348C2.56231 9.11439 2.92351 8.86301 3.33642 8.75335L6.85415 7.8114C7.32043 7.68744 7.81682 7.75322 8.23472 7.99436C8.65261 8.2355 8.95797 8.63235 9.08398 9.09808L10.0271 12.617C10.1379 13.0292 10.1003 13.4673 9.92095 13.8546C9.74158 14.242 9.43183 14.554 9.0458 14.7361C8.65978 14.9183 8.22202 14.959 7.809 14.8513C7.39599 14.7435 7.03396 14.494 6.78617 14.1465L4.09022 18.8149H6.43052C6.91341 18.8149 7.37653 19.0067 7.71799 19.3482C8.05945 19.6897 8.25129 20.1528 8.25129 20.6357C8.25129 21.1186 8.05945 21.5817 7.71799 21.9232C7.37653 22.2646 6.91341 22.4565 6.43052 22.4565H3.03903C0.702377 22.4565 -0.756666 19.928 0.411054 17.9045ZM22.8927 14.967C22.6495 14.5522 22.2522 14.2505 21.7873 14.1276C21.3225 14.0047 20.8279 14.0706 20.4115 14.311C19.9952 14.5515 19.6908 14.9468 19.5648 15.4108C19.4388 15.8748 19.5015 16.3698 19.7391 16.7878L20.9093 18.8149H15.5198C15.6973 18.4264 15.7326 17.9878 15.6194 17.576C15.5063 17.1641 15.2519 16.8051 14.9008 16.5618C14.5497 16.3185 14.1243 16.2063 13.6989 16.245C13.2735 16.2836 12.8753 16.4706 12.5738 16.7732L10.0077 19.3393C9.6727 19.6695 9.46513 20.1283 9.46513 20.6357C9.46513 21.1358 9.65935 21.5898 10.0077 21.9333L12.5738 24.4981C12.8754 24.7999 13.2735 24.9861 13.6984 25.0243C14.1234 25.0625 14.5482 24.9503 14.8989 24.7072C15.2495 24.4641 15.5036 24.1055 15.6169 23.6942C15.7302 23.2828 15.6954 22.8448 15.5186 22.4565H21.9605C24.2971 22.4565 25.7574 19.928 24.5884 17.9045L22.8927 14.967Z" fill="white"/>
</svg>
