<svg width="26" height="23" viewBox="0 0 26 23" fill="none" xmlns="http://www.w3.org/2000/svg">
<path d="M22.0312 2.8125H19.0336L17.5781 0.625783C17.4495 0.43298 17.2752 0.274962 17.0707 0.165785C16.8663 0.0566078 16.638 -0.000342005 16.4062 1.54517e-06H8.90625C8.67447 -0.000342005 8.44621 0.0566078 8.24176 0.165785C8.03731 0.274962 7.86301 0.43298 7.73438 0.625783L6.27773 2.8125H3.28125C2.41101 2.8125 1.57641 3.1582 0.961056 3.77356C0.345702 4.38891 0 5.22351 0 6.09375V19.2188C0 20.089 0.345702 20.9236 0.961056 21.5389C1.57641 22.1543 2.41101 22.5 3.28125 22.5H22.0312C22.4622 22.5 22.8888 22.4151 23.2869 22.2502C23.685 22.0853 24.0468 21.8436 24.3514 21.5389C24.6561 21.2343 24.8978 20.8725 25.0627 20.4744C25.2276 20.0763 25.3125 19.6497 25.3125 19.2188V6.09375C25.3125 5.66285 25.2276 5.23617 25.0627 4.83807C24.8978 4.43997 24.6561 4.07825 24.3514 3.77356C24.0468 3.46887 23.685 3.22717 23.2869 3.06227C22.8888 2.89737 22.4622 2.8125 22.0312 2.8125ZM22.5 19.2188C22.5 19.3431 22.4506 19.4623 22.3627 19.5502C22.2748 19.6381 22.1556 19.6875 22.0312 19.6875H3.28125C3.15693 19.6875 3.0377 19.6381 2.94979 19.5502C2.86189 19.4623 2.8125 19.3431 2.8125 19.2188V6.09375C2.8125 5.96943 2.86189 5.8502 2.94979 5.7623C3.0377 5.67439 3.15693 5.625 3.28125 5.625H7.03125C7.26303 5.62535 7.49129 5.5684 7.69574 5.45922C7.90019 5.35004 8.07449 5.19202 8.20312 4.99922L9.65859 2.8125H15.6527L17.1094 4.99922C17.238 5.19202 17.4123 5.35004 17.6168 5.45922C17.8212 5.5684 18.0495 5.62535 18.2812 5.625H22.0312C22.1556 5.625 22.2748 5.67439 22.3627 5.7623C22.4506 5.8502 22.5 5.96943 22.5 6.09375V19.2188ZM12.6562 6.5625C11.5437 6.5625 10.4562 6.8924 9.53117 7.51049C8.60614 8.12857 7.88517 9.00707 7.45943 10.0349C7.03369 11.0627 6.92229 12.1937 7.13933 13.2849C7.35638 14.376 7.8921 15.3783 8.67877 16.165C9.46544 16.9516 10.4677 17.4874 11.5589 17.7044C12.65 17.9215 13.781 17.8101 14.8088 17.3843C15.8367 16.9586 16.7152 16.2376 17.3333 15.3126C17.9513 14.3876 18.2812 13.3 18.2812 12.1875C18.2797 10.6961 17.6866 9.2663 16.632 8.21174C15.5775 7.15718 14.1476 6.56405 12.6562 6.5625ZM12.6562 15C12.1 15 11.5562 14.8351 11.0937 14.526C10.6312 14.217 10.2707 13.7777 10.0578 13.2638C9.84497 12.7499 9.78927 12.1844 9.89779 11.6388C10.0063 11.0932 10.2742 10.5921 10.6675 10.1988C11.0608 9.80543 11.562 9.53756 12.1076 9.42904C12.6531 9.32052 13.2186 9.37622 13.7325 9.58909C14.2465 9.80196 14.6857 10.1624 14.9948 10.625C15.3038 11.0875 15.4688 11.6312 15.4688 12.1875C15.4688 12.9334 15.1724 13.6488 14.645 14.1762C14.1175 14.7037 13.4022 15 12.6562 15Z" fill="#8E8E8E"/>
</svg>
