<svg width="25" height="26" viewBox="0 0 25 26" fill="none" xmlns="http://www.w3.org/2000/svg">
<path d="M11.25 1.875V0.9375C11.25 0.68886 11.3488 0.450403 11.5246 0.274587C11.7004 0.0987721 11.9389 0 12.1875 0C12.4361 0 12.6746 0.0987721 12.8504 0.274587C13.0262 0.450403 13.125 0.68886 13.125 0.9375V1.875C13.125 2.12364 13.0262 2.3621 12.8504 2.53791C12.6746 2.71373 12.4361 2.8125 12.1875 2.8125C11.9389 2.8125 11.7004 2.71373 11.5246 2.53791C11.3488 2.3621 11.25 2.12364 11.25 1.875ZM20.625 5.625C20.7481 5.6251 20.8701 5.60093 20.9839 5.55388C21.0977 5.50683 21.2012 5.43781 21.2883 5.35078L22.2258 4.41328C22.4017 4.23737 22.5005 3.99878 22.5005 3.75C22.5005 3.50122 22.4017 3.26263 22.2258 3.08672C22.0499 2.91081 21.8113 2.81198 21.5625 2.81198C21.3137 2.81198 21.0751 2.91081 20.8992 3.08672L19.9617 4.02422C19.8305 4.15533 19.7411 4.32245 19.7048 4.5044C19.6686 4.68635 19.6871 4.87497 19.7582 5.04637C19.8292 5.21776 19.9495 5.36423 20.1038 5.46724C20.2581 5.57024 20.4395 5.62515 20.625 5.625ZM3.08672 5.35078C3.26263 5.52669 3.50122 5.62552 3.75 5.62552C3.99878 5.62552 4.23737 5.52669 4.41328 5.35078C4.58919 5.17487 4.68802 4.93628 4.68802 4.6875C4.68802 4.43872 4.58919 4.20013 4.41328 4.02422L3.47578 3.08672C3.29987 2.91081 3.06128 2.81198 2.8125 2.81198C2.56372 2.81198 2.32513 2.91081 2.14922 3.08672C1.97331 3.26263 1.87448 3.50122 1.87448 3.75C1.87448 3.99878 1.97331 4.23737 2.14922 4.41328L3.08672 5.35078ZM13.282 8.45039C13.1601 8.42882 13.0351 8.43163 12.9142 8.45866C12.7933 8.48568 12.679 8.53639 12.5779 8.60784C12.4767 8.67929 12.3907 8.77008 12.3249 8.87496C12.259 8.97983 12.2146 9.09672 12.1941 9.21887C12.1737 9.34102 12.1777 9.46601 12.2058 9.58661C12.2339 9.70722 12.2857 9.82105 12.3581 9.92154C12.4305 10.022 12.5221 10.1072 12.6275 10.1721C12.733 10.237 12.8503 10.2803 12.9727 10.2996C15.1957 10.6734 16.875 12.6938 16.875 15C16.875 15.2486 16.9738 15.4871 17.1496 15.6629C17.3254 15.8387 17.5639 15.9375 17.8125 15.9375C18.0611 15.9375 18.2996 15.8387 18.4754 15.6629C18.6512 15.4871 18.75 15.2486 18.75 15C18.75 11.7891 16.398 8.97305 13.2797 8.45039H13.282ZM24.375 20.625V23.4375C24.375 23.9348 24.1775 24.4117 23.8258 24.7633C23.4742 25.115 22.9973 25.3125 22.5 25.3125H1.875C1.37772 25.3125 0.900805 25.115 0.549175 24.7633C0.197544 24.4117 0 23.9348 0 23.4375V20.625C0 20.1277 0.197544 19.6508 0.549175 19.2992C0.900805 18.9475 1.37772 18.75 1.875 18.75V15C1.87496 13.6391 2.14428 12.2917 2.66743 11.0354C3.19059 9.77904 3.95723 8.6387 4.92317 7.68006C5.8891 6.72142 7.03523 5.96345 8.29548 5.44984C9.55572 4.93623 10.9052 4.67714 12.266 4.6875C17.9086 4.72969 22.5 9.40898 22.5 15.1172V18.75C22.9973 18.75 23.4742 18.9475 23.8258 19.2992C24.1775 19.6508 24.375 20.1277 24.375 20.625ZM3.75 18.75H20.625V15.1172C20.625 10.4297 16.8691 6.59648 12.252 6.5625H12.1875C9.94974 6.5625 7.80362 7.45145 6.22129 9.03379C4.63895 10.6161 3.75 12.7622 3.75 15V18.75ZM22.5 23.4375V20.625H1.875V23.4375H22.5Z" fill="#8E8E8E"/>
</svg>
