<?xml version="1.0" encoding="UTF-8" standalone="no" ?>
<!DOCTYPE svg PUBLIC "-//W3C//DTD SVG 1.1//EN" "http://www.w3.org/Graphics/SVG/1.1/DTD/svg11.dtd">
<svg xmlns="http://www.w3.org/2000/svg" xmlns:xlink="http://www.w3.org/1999/xlink" version="1.1" width="50" height="50" viewBox="0 0 50 50" xml:space="preserve">
<desc>Created with Fabric.js 5.3.0</desc>
<defs>
</defs>
<g transform="matrix(0.707 0 0 -0.707 25.3536067893 25.3536067893)" id="US4Dl_FGI_2ffNhPxOMZ3"  >
<path style="stroke: rgb(24,238,153); stroke-width: 0; stroke-dasharray: none; stroke-linecap: butt; stroke-dashoffset: 0; stroke-linejoin: miter; stroke-miterlimit: 4; fill: rgb(44,210,97); fill-rule: nonzero; opacity: 1;"  transform=" translate(0, 0)" d="M 0 -35.36068 C 19.51909 -35.36068 35.36068 -19.5191 35.36068 0 C 35.36068 19.51909 19.5191 35.36068 0 35.36068 C -19.51909 35.36068 -35.36068 19.5191 -35.36068 0 C -35.36068 -19.51909 -19.5191 -35.36068 0 -35.36068 z" stroke-linecap="round" />
</g>
<g transform="matrix(0.31815 0 0 0.31815 25.3536067893 25.3536067893)" id="RzLKv6sVsRN6k8amBrG1s"  >
<path style="stroke: rgb(136,132,95); stroke-width: 0; stroke-dasharray: none; stroke-linecap: butt; stroke-dashoffset: 0; stroke-linejoin: miter; stroke-miterlimit: 4; fill: rgb(255,255,255); fill-rule: nonzero; opacity: 1;"  transform=" translate(0, 0)" d="M -35.36068 -20.35841 C -35.36068 -28.643929999999997 -28.64394 -35.36068 -20.358410000000003 -35.36068 L 20.35842 -35.36068 L 20.35842 -35.36068 C 28.64394 -35.36068 35.36069 -28.64394 35.36069 -20.358410000000003 L 35.36069 20.35842 L 35.36069 20.35842 C 35.36069 28.64394 28.643949999999997 35.36069 20.35842 35.36069 L -20.358410000000003 35.36069 L -20.358410000000003 35.36069 C -28.643930000000005 35.36069 -35.36068 28.643949999999997 -35.36068 20.35842 z" stroke-linecap="round" />
</g>
</svg>