<svg width="20" height="23" viewBox="0 0 20 23" fill="none" xmlns="http://www.w3.org/2000/svg">
<path d="M6.66667 22.2222H15.5556V19.4444C18.2333 17.6333 20 14.5778 20 11.1111V2.22222C20 1.63285 19.7659 1.06762 19.3491 0.650874C18.9324 0.234126 18.3671 0 17.7778 0H13.3333C12.744 0 12.1787 0.234126 11.762 0.650874C11.3452 1.06762 11.1111 1.63285 11.1111 2.22222V11.1111H0C0 14.5444 2.22222 17.7778 6.66667 19.4444V22.2222ZM2.54444 13.3333H17.4556C17.1434 14.3791 16.6153 15.3477 15.9052 16.1765C15.1951 17.0052 14.3189 17.6757 13.3333 18.1444V20H8.88889V18.1444C6.66667 17.7778 3.17778 15.4556 2.54444 13.3333ZM13.3333 2.22222H17.7778V11.1111H13.3333V2.22222ZM14.4444 3.33333V6.66667H16.6667V3.33333H14.4444Z" fill="white"/>
</svg>
